<mxfile host="app.diagrams.net" modified="2024-01-26T21:25:37.152Z" agent="Mozilla/5.0 (Macintosh; Intel Mac OS X 10_15_7) AppleWebKit/537.36 (KHTML, like Gecko) Chrome/120.0.0.0 Safari/537.36" etag="ViU8esMVV27Qxm1WGuPZ" version="22.1.21" type="device">
  <diagram id="C5RBs43oDa-KdzZeNtuy" name="Page-1">
    <mxGraphModel dx="733" dy="465" grid="1" gridSize="10" guides="1" tooltips="1" connect="1" arrows="1" fold="1" page="1" pageScale="1" pageWidth="827" pageHeight="1169" math="0" shadow="0">
      <root>
        <mxCell id="WIyWlLk6GJQsqaUBKTNV-0" />
        <mxCell id="WIyWlLk6GJQsqaUBKTNV-1" parent="WIyWlLk6GJQsqaUBKTNV-0" />
        <mxCell id="iyH_EipeMZXM0Fu82atl-0" value="" style="ellipse;whiteSpace=wrap;html=1;" parent="WIyWlLk6GJQsqaUBKTNV-1" vertex="1">
          <mxGeometry x="270" y="90" width="120" height="120" as="geometry" />
        </mxCell>
        <mxCell id="iyH_EipeMZXM0Fu82atl-1" value="&lt;font style=&quot;font-size: 19px;&quot;&gt;System Off&lt;/font&gt;" style="text;html=1;strokeColor=none;fillColor=none;align=center;verticalAlign=middle;whiteSpace=wrap;rounded=0;" parent="WIyWlLk6GJQsqaUBKTNV-1" vertex="1">
          <mxGeometry x="295" y="110" width="70" height="30" as="geometry" />
        </mxCell>
        <mxCell id="iyH_EipeMZXM0Fu82atl-2" value="" style="ellipse;whiteSpace=wrap;html=1;aspect=fixed;fillColor=none;strokeColor=#3399FF;fontColor=#000000;" parent="WIyWlLk6GJQsqaUBKTNV-1" vertex="1">
          <mxGeometry x="277.5" y="147.5" width="37.5" height="37.5" as="geometry" />
        </mxCell>
        <mxCell id="iyH_EipeMZXM0Fu82atl-3" value="OFF" style="text;html=1;strokeColor=none;fillColor=none;align=center;verticalAlign=middle;whiteSpace=wrap;rounded=0;" parent="WIyWlLk6GJQsqaUBKTNV-1" vertex="1">
          <mxGeometry x="281.25" y="158.75" width="30" height="15" as="geometry" />
        </mxCell>
        <mxCell id="iyH_EipeMZXM0Fu82atl-4" value="" style="ellipse;whiteSpace=wrap;html=1;aspect=fixed;fillColor=none;strokeColor=#3399FF;" parent="WIyWlLk6GJQsqaUBKTNV-1" vertex="1">
          <mxGeometry x="345" y="147.5" width="37.5" height="37.5" as="geometry" />
        </mxCell>
        <mxCell id="iyH_EipeMZXM0Fu82atl-5" value="OFF" style="text;html=1;align=center;verticalAlign=middle;whiteSpace=wrap;rounded=0;fontColor=#000000;" parent="WIyWlLk6GJQsqaUBKTNV-1" vertex="1">
          <mxGeometry x="348.75" y="156.25" width="30" height="20" as="geometry" />
        </mxCell>
        <mxCell id="iyH_EipeMZXM0Fu82atl-6" value="" style="ellipse;whiteSpace=wrap;html=1;" parent="WIyWlLk6GJQsqaUBKTNV-1" vertex="1">
          <mxGeometry x="550" y="230" width="120" height="120" as="geometry" />
        </mxCell>
        <mxCell id="iyH_EipeMZXM0Fu82atl-7" value="&lt;font style=&quot;font-size: 19px;&quot;&gt;Worker mode&lt;/font&gt;" style="text;html=1;strokeColor=none;fillColor=none;align=center;verticalAlign=middle;whiteSpace=wrap;rounded=0;" parent="WIyWlLk6GJQsqaUBKTNV-1" vertex="1">
          <mxGeometry x="575" y="250" width="70" height="30" as="geometry" />
        </mxCell>
        <mxCell id="iyH_EipeMZXM0Fu82atl-12" value="" style="endArrow=classic;html=1;rounded=0;fontSize=21;horizontal=1;entryX=0.083;entryY=0.167;entryDx=0;entryDy=0;entryPerimeter=0;fillColor=#66B2FF;fontColor=#007FFF;strokeWidth=2;strokeColor=#0066CC;" parent="WIyWlLk6GJQsqaUBKTNV-1" source="iyH_EipeMZXM0Fu82atl-0" target="iyH_EipeMZXM0Fu82atl-6" edge="1">
          <mxGeometry width="50" height="50" relative="1" as="geometry">
            <mxPoint x="410" y="290" as="sourcePoint" />
            <mxPoint x="450" y="240" as="targetPoint" />
          </mxGeometry>
        </mxCell>
        <mxCell id="iyH_EipeMZXM0Fu82atl-14" value="" style="curved=1;endArrow=classic;html=1;rounded=0;exitX=0.641;exitY=0.004;exitDx=0;exitDy=0;exitPerimeter=0;entryX=1;entryY=0.333;entryDx=0;entryDy=0;entryPerimeter=0;strokeWidth=2;strokeColor=#0066CC;" parent="WIyWlLk6GJQsqaUBKTNV-1" source="iyH_EipeMZXM0Fu82atl-6" target="iyH_EipeMZXM0Fu82atl-0" edge="1">
          <mxGeometry width="50" height="50" relative="1" as="geometry">
            <mxPoint x="490" y="200" as="sourcePoint" />
            <mxPoint x="540" y="150" as="targetPoint" />
            <Array as="points">
              <mxPoint x="530" y="170" />
              <mxPoint x="510" y="160" />
            </Array>
          </mxGeometry>
        </mxCell>
        <mxCell id="iyH_EipeMZXM0Fu82atl-25" value="" style="ellipse;whiteSpace=wrap;html=1;" parent="WIyWlLk6GJQsqaUBKTNV-1" vertex="1">
          <mxGeometry x="10" y="235" width="120" height="120" as="geometry" />
        </mxCell>
        <mxCell id="iyH_EipeMZXM0Fu82atl-26" value="&lt;font style=&quot;font-size: 19px;&quot;&gt;Plant mode&lt;/font&gt;" style="text;html=1;strokeColor=none;fillColor=none;align=center;verticalAlign=middle;whiteSpace=wrap;rounded=0;" parent="WIyWlLk6GJQsqaUBKTNV-1" vertex="1">
          <mxGeometry x="35" y="255" width="70" height="30" as="geometry" />
        </mxCell>
        <mxCell id="iyH_EipeMZXM0Fu82atl-31" value="" style="endArrow=classic;html=1;rounded=0;fontSize=21;horizontal=1;entryX=0.005;entryY=0.554;entryDx=0;entryDy=0;entryPerimeter=0;fillColor=#66B2FF;fontColor=#007FFF;strokeWidth=2;strokeColor=#0066CC;exitX=0.674;exitY=-0.014;exitDx=0;exitDy=0;exitPerimeter=0;" parent="WIyWlLk6GJQsqaUBKTNV-1" source="iyH_EipeMZXM0Fu82atl-25" target="iyH_EipeMZXM0Fu82atl-0" edge="1">
          <mxGeometry width="50" height="50" relative="1" as="geometry">
            <mxPoint x="389" y="195" as="sourcePoint" />
            <mxPoint x="480" y="260" as="targetPoint" />
          </mxGeometry>
        </mxCell>
        <mxCell id="iyH_EipeMZXM0Fu82atl-35" value="" style="endArrow=classic;html=1;rounded=0;fontSize=21;horizontal=1;entryX=0.005;entryY=0.69;entryDx=0;entryDy=0;entryPerimeter=0;fillColor=#66B2FF;fontColor=#007FFF;strokeWidth=2;strokeColor=#00CC00;exitX=1.011;exitY=0.589;exitDx=0;exitDy=0;exitPerimeter=0;" parent="WIyWlLk6GJQsqaUBKTNV-1" source="iyH_EipeMZXM0Fu82atl-25" target="iyH_EipeMZXM0Fu82atl-6" edge="1">
          <mxGeometry width="50" height="50" relative="1" as="geometry">
            <mxPoint x="236.5" y="356" as="sourcePoint" />
            <mxPoint x="363.5" y="250" as="targetPoint" />
          </mxGeometry>
        </mxCell>
        <mxCell id="3Iq2bgIuKtoezMFsLz0R-0" value="" style="ellipse;whiteSpace=wrap;html=1;aspect=fixed;fillColor=none;strokeColor=#3399FF;" parent="WIyWlLk6GJQsqaUBKTNV-1" vertex="1">
          <mxGeometry x="311.25" y="168.75" width="37.5" height="37.5" as="geometry" />
        </mxCell>
        <mxCell id="3Iq2bgIuKtoezMFsLz0R-1" value="OFF" style="text;html=1;align=center;verticalAlign=middle;whiteSpace=wrap;rounded=0;fontColor=#000000;" parent="WIyWlLk6GJQsqaUBKTNV-1" vertex="1">
          <mxGeometry x="315" y="177.5" width="30" height="20" as="geometry" />
        </mxCell>
        <mxCell id="3Iq2bgIuKtoezMFsLz0R-9" value="" style="ellipse;whiteSpace=wrap;html=1;aspect=fixed;fillColor=#FF3333;strokeColor=#3399FF;fontColor=#000000;" parent="WIyWlLk6GJQsqaUBKTNV-1" vertex="1">
          <mxGeometry x="559" y="288" width="37.5" height="37.5" as="geometry" />
        </mxCell>
        <mxCell id="3Iq2bgIuKtoezMFsLz0R-10" value="ON" style="text;html=1;strokeColor=none;fillColor=none;align=center;verticalAlign=middle;whiteSpace=wrap;rounded=0;" parent="WIyWlLk6GJQsqaUBKTNV-1" vertex="1">
          <mxGeometry x="562.75" y="299.25" width="30" height="15" as="geometry" />
        </mxCell>
        <mxCell id="3Iq2bgIuKtoezMFsLz0R-11" value="" style="ellipse;whiteSpace=wrap;html=1;aspect=fixed;fillColor=#007FFF;strokeColor=#3399FF;" parent="WIyWlLk6GJQsqaUBKTNV-1" vertex="1">
          <mxGeometry x="626.5" y="288" width="37.5" height="37.5" as="geometry" />
        </mxCell>
        <mxCell id="3Iq2bgIuKtoezMFsLz0R-12" value="ON" style="text;html=1;align=center;verticalAlign=middle;whiteSpace=wrap;rounded=0;fontColor=#000000;" parent="WIyWlLk6GJQsqaUBKTNV-1" vertex="1">
          <mxGeometry x="630.25" y="296.75" width="30" height="20" as="geometry" />
        </mxCell>
        <mxCell id="3Iq2bgIuKtoezMFsLz0R-13" value="" style="ellipse;whiteSpace=wrap;html=1;aspect=fixed;fillColor=#00CC00;strokeColor=#3399FF;" parent="WIyWlLk6GJQsqaUBKTNV-1" vertex="1">
          <mxGeometry x="592.75" y="309.25" width="37.5" height="37.5" as="geometry" />
        </mxCell>
        <mxCell id="3Iq2bgIuKtoezMFsLz0R-14" value="ON" style="text;html=1;align=center;verticalAlign=middle;whiteSpace=wrap;rounded=0;fontColor=#000000;" parent="WIyWlLk6GJQsqaUBKTNV-1" vertex="1">
          <mxGeometry x="596.5" y="318" width="30" height="20" as="geometry" />
        </mxCell>
        <mxCell id="3Iq2bgIuKtoezMFsLz0R-15" value="" style="ellipse;whiteSpace=wrap;html=1;aspect=fixed;fillColor=#FF3333;strokeColor=#3399FF;fontColor=#000000;" parent="WIyWlLk6GJQsqaUBKTNV-1" vertex="1">
          <mxGeometry x="18" y="292.5" width="37.5" height="37.5" as="geometry" />
        </mxCell>
        <mxCell id="3Iq2bgIuKtoezMFsLz0R-16" value="ON" style="text;html=1;strokeColor=none;fillColor=none;align=center;verticalAlign=middle;whiteSpace=wrap;rounded=0;" parent="WIyWlLk6GJQsqaUBKTNV-1" vertex="1">
          <mxGeometry x="21.75" y="303.75" width="30" height="15" as="geometry" />
        </mxCell>
        <mxCell id="3Iq2bgIuKtoezMFsLz0R-17" value="" style="ellipse;whiteSpace=wrap;html=1;aspect=fixed;fillColor=#007FFF;strokeColor=#3399FF;" parent="WIyWlLk6GJQsqaUBKTNV-1" vertex="1">
          <mxGeometry x="85.5" y="292.5" width="37.5" height="37.5" as="geometry" />
        </mxCell>
        <mxCell id="3Iq2bgIuKtoezMFsLz0R-18" value="ON" style="text;html=1;align=center;verticalAlign=middle;whiteSpace=wrap;rounded=0;fontColor=#000000;" parent="WIyWlLk6GJQsqaUBKTNV-1" vertex="1">
          <mxGeometry x="89.25" y="301.25" width="30" height="20" as="geometry" />
        </mxCell>
        <mxCell id="3Iq2bgIuKtoezMFsLz0R-19" value="" style="ellipse;whiteSpace=wrap;html=1;aspect=fixed;fillColor=none;strokeColor=#3399FF;" parent="WIyWlLk6GJQsqaUBKTNV-1" vertex="1">
          <mxGeometry x="51.75" y="313.75" width="37.5" height="37.5" as="geometry" />
        </mxCell>
        <mxCell id="3Iq2bgIuKtoezMFsLz0R-20" value="OFF" style="text;html=1;align=center;verticalAlign=middle;whiteSpace=wrap;rounded=0;fontColor=#000000;" parent="WIyWlLk6GJQsqaUBKTNV-1" vertex="1">
          <mxGeometry x="55.5" y="322.5" width="30" height="20" as="geometry" />
        </mxCell>
        <mxCell id="ab45AY5imv68Dg17gVom-0" value="" style="ellipse;whiteSpace=wrap;html=1;aspect=fixed;fillColor=#FFFFFF;rotation=20;strokeColor=#000000;labelBorderColor=default;" vertex="1" parent="WIyWlLk6GJQsqaUBKTNV-1">
          <mxGeometry x="510" y="140" width="65" height="65" as="geometry" />
        </mxCell>
        <mxCell id="ab45AY5imv68Dg17gVom-6" value="" style="endArrow=classic;html=1;rounded=0;fontSize=21;horizontal=1;fillColor=#66B2FF;fontColor=#007FFF;strokeWidth=2;strokeColor=#00CC00;exitX=0.201;exitY=0.929;exitDx=0;exitDy=0;exitPerimeter=0;entryX=1;entryY=1;entryDx=0;entryDy=0;" edge="1" parent="WIyWlLk6GJQsqaUBKTNV-1" source="iyH_EipeMZXM0Fu82atl-6" target="iyH_EipeMZXM0Fu82atl-25">
          <mxGeometry width="50" height="50" relative="1" as="geometry">
            <mxPoint x="130" y="325.5" as="sourcePoint" />
            <mxPoint x="150" y="300" as="targetPoint" />
            <Array as="points" />
          </mxGeometry>
        </mxCell>
        <mxCell id="iyH_EipeMZXM0Fu82atl-15" value="&lt;font style=&quot;font-size: 17px;&quot;&gt;System button&lt;/font&gt;" style="text;html=1;align=center;verticalAlign=middle;whiteSpace=wrap;rounded=0;rotation=20;fontSize=17;labelBackgroundColor=none;fillColor=none;fontColor=#000000;strokeColor=none;" parent="WIyWlLk6GJQsqaUBKTNV-1" vertex="1">
          <mxGeometry x="521.25" y="163.75" width="42.5" height="17.5" as="geometry" />
        </mxCell>
        <mxCell id="ab45AY5imv68Dg17gVom-9" value="" style="ellipse;whiteSpace=wrap;html=1;aspect=fixed;fillColor=#FFFFFF;rotation=30;strokeColor=#000000;labelBorderColor=default;" vertex="1" parent="WIyWlLk6GJQsqaUBKTNV-1">
          <mxGeometry x="430" y="177.5" width="65" height="65" as="geometry" />
        </mxCell>
        <mxCell id="ab45AY5imv68Dg17gVom-10" value="&lt;font style=&quot;font-size: 17px;&quot;&gt;System button&lt;/font&gt;" style="text;html=1;align=center;verticalAlign=middle;whiteSpace=wrap;rounded=0;rotation=30;fontSize=17;labelBackgroundColor=none;fillColor=none;fontColor=#000000;strokeColor=none;" vertex="1" parent="WIyWlLk6GJQsqaUBKTNV-1">
          <mxGeometry x="441.25" y="201.25" width="42.5" height="17.5" as="geometry" />
        </mxCell>
        <mxCell id="ab45AY5imv68Dg17gVom-11" value="" style="ellipse;whiteSpace=wrap;html=1;aspect=fixed;fillColor=#FFFFFF;rotation=340;" vertex="1" parent="WIyWlLk6GJQsqaUBKTNV-1">
          <mxGeometry x="160" y="158.75" width="65" height="65" as="geometry" />
        </mxCell>
        <mxCell id="ab45AY5imv68Dg17gVom-12" value="&lt;font style=&quot;font-size: 17px;&quot;&gt;System button&lt;/font&gt;" style="text;html=1;align=center;verticalAlign=middle;whiteSpace=wrap;rounded=0;rotation=340;fontSize=17;labelBackgroundColor=none;fillColor=none;fontColor=#000000;strokeColor=none;" vertex="1" parent="WIyWlLk6GJQsqaUBKTNV-1">
          <mxGeometry x="171.25" y="182.5" width="42.5" height="17.5" as="geometry" />
        </mxCell>
        <mxCell id="ab45AY5imv68Dg17gVom-15" value="" style="ellipse;whiteSpace=wrap;html=1;aspect=fixed;fillColor=#FF3333;rotation=0;strokeColor=#000000;" vertex="1" parent="WIyWlLk6GJQsqaUBKTNV-1">
          <mxGeometry x="315" y="318.75" width="65" height="65" as="geometry" />
        </mxCell>
        <mxCell id="ab45AY5imv68Dg17gVom-16" value="&lt;font color=&quot;#ffffff&quot; style=&quot;font-size: 17px;&quot;&gt;Worker&lt;br&gt;Button&lt;br&gt;&lt;/font&gt;" style="text;html=1;align=center;verticalAlign=middle;whiteSpace=wrap;rounded=0;rotation=0;fontSize=17;labelBackgroundColor=none;fillColor=none;fontColor=#333333;strokeColor=none;" vertex="1" parent="WIyWlLk6GJQsqaUBKTNV-1">
          <mxGeometry x="326.25" y="342.5" width="42.5" height="17.5" as="geometry" />
        </mxCell>
        <mxCell id="ab45AY5imv68Dg17gVom-19" value="" style="ellipse;whiteSpace=wrap;html=1;aspect=fixed;fillColor=#FF3333;rotation=0;strokeColor=#000000;" vertex="1" parent="WIyWlLk6GJQsqaUBKTNV-1">
          <mxGeometry x="250" y="265" width="65" height="65" as="geometry" />
        </mxCell>
        <mxCell id="ab45AY5imv68Dg17gVom-20" value="&lt;font color=&quot;#ffffff&quot; style=&quot;font-size: 17px;&quot;&gt;Worker&lt;br&gt;Button&lt;br&gt;&lt;/font&gt;" style="text;html=1;align=center;verticalAlign=middle;whiteSpace=wrap;rounded=0;rotation=0;fontSize=17;labelBackgroundColor=none;fillColor=none;fontColor=#333333;strokeColor=none;" vertex="1" parent="WIyWlLk6GJQsqaUBKTNV-1">
          <mxGeometry x="261.25" y="288.75" width="42.5" height="17.5" as="geometry" />
        </mxCell>
      </root>
    </mxGraphModel>
  </diagram>
</mxfile>
